<svg xmlns="http://www.w3.org/2000/svg" width="137.01999999999998" height="35" viewBox="0 0 137.01999999999998 35"><rect class="svg__rect" x="0" y="0" width="54.760000000000005" height="35" fill="#DE1B3B"/><rect class="svg__rect" x="52.760000000000005" y="0" width="84.25999999999999" height="35" fill="#FB4F6C"/><path class="svg__text" d="M14.08 19.16L14.08 19.16L14.08 13.47L15.56 13.47L15.56 19.18Q15.56 20.03 15.99 20.48Q16.43 20.93 17.27 20.93L17.27 20.93Q18.98 20.93 18.98 19.13L18.98 19.13L18.98 13.47L20.46 13.47L20.46 19.17Q20.46 20.53 19.59 21.32Q18.72 22.12 17.27 22.12L17.27 22.12Q15.81 22.12 14.94 21.33Q14.08 20.55 14.08 19.16ZM24.59 19.42L24.59 19.42L26.08 19.42Q26.08 20.15 26.56 20.55Q27.04 20.95 27.93 20.95L27.93 20.95Q28.71 20.95 29.10 20.63Q29.49 20.32 29.49 19.80L29.49 19.80Q29.49 19.24 29.09 18.94Q28.70 18.63 27.66 18.32Q26.63 18.01 26.02 17.63L26.02 17.63Q24.86 16.90 24.86 15.72L24.86 15.72Q24.86 14.69 25.70 14.02Q26.54 13.35 27.88 13.35L27.88 13.35Q28.77 13.35 29.47 13.68Q30.17 14.01 30.56 14.61Q30.96 15.22 30.96 15.96L30.96 15.96L29.49 15.96Q29.49 15.29 29.07 14.91Q28.65 14.54 27.87 14.54L27.87 14.54Q27.14 14.54 26.74 14.85Q26.34 15.16 26.34 15.71L26.34 15.71Q26.34 16.18 26.77 16.50Q27.21 16.81 28.20 17.10Q29.20 17.40 29.80 17.78Q30.41 18.16 30.69 18.65Q30.97 19.13 30.97 19.79L30.97 19.79Q30.97 20.86 30.15 21.49Q29.33 22.12 27.93 22.12L27.93 22.12Q27.01 22.12 26.23 21.77Q25.46 21.43 25.02 20.83Q24.59 20.22 24.59 19.42ZM40.84 22L35.26 22L35.26 13.47L40.80 13.47L40.80 14.66L36.74 14.66L36.74 17.02L40.24 17.02L40.24 18.19L36.74 18.19L36.74 20.82L40.84 20.82L40.84 22Z" fill="#FFFFFF"/><path class="svg__text" d="M69.33 22L66.95 22L66.95 13.60L70.79 13.60Q71.93 13.60 72.77 13.98Q73.61 14.35 74.07 15.06Q74.52 15.76 74.52 16.71L74.52 16.71Q74.52 17.62 74.10 18.30Q73.67 18.98 72.88 19.36L72.88 19.36L74.69 22L72.15 22L70.62 19.77L69.33 19.77L69.33 22ZM69.33 15.47L69.33 17.93L70.65 17.93Q71.38 17.93 71.75 17.61Q72.12 17.29 72.12 16.71L72.12 16.71Q72.12 16.12 71.75 15.79Q71.38 15.47 70.65 15.47L70.65 15.47L69.33 15.47ZM86.06 22L79.31 22L79.31 13.60L85.90 13.60L85.90 15.44L81.67 15.44L81.67 16.85L85.40 16.85L85.40 18.63L81.67 18.63L81.67 20.17L86.06 20.17L86.06 22ZM94.83 22L90.86 22L90.86 13.60L94.83 13.60Q96.22 13.60 97.28 14.12Q98.35 14.63 98.94 15.58Q99.53 16.53 99.53 17.80L99.53 17.80Q99.53 19.07 98.94 20.02Q98.35 20.97 97.28 21.48Q96.22 22 94.83 22L94.83 22ZM93.24 15.50L93.24 20.10L94.74 20.10Q95.82 20.10 96.47 19.49Q97.12 18.88 97.12 17.80L97.12 17.80Q97.12 16.72 96.47 16.11Q95.82 15.50 94.74 15.50L94.74 15.50L93.24 15.50ZM104.18 18.26L104.18 18.26L104.18 13.60L106.56 13.60L106.56 18.19Q106.56 20.20 108.16 20.20L108.16 20.20Q109.74 20.20 109.74 18.19L109.74 18.19L109.74 13.60L112.08 13.60L112.08 18.26Q112.08 20.13 111.04 21.15Q110.00 22.17 108.13 22.17L108.13 22.17Q106.26 22.17 105.22 21.15Q104.18 20.13 104.18 18.26ZM119.02 22L116.31 22L119.37 17.75L116.44 13.60L119.11 13.60L120.80 16.02L122.45 13.60L125.02 13.60L122.09 17.66L125.21 22L122.48 22L120.74 19.40L119.02 22Z" fill="#FFFFFF" x="65.76"/></svg>